<svg width="14" height="14" viewBox="0 0 14 14" fill="none" xmlns="http://www.w3.org/2000/svg">
<path d="M7 13C10.3137 13 13 10.3137 13 7C13 3.68629 10.3137 1 7 1C3.68629 1 1 3.68629 1 7C1 10.3137 3.68629 13 7 13Z" stroke="#423D35" stroke-linecap="round" stroke-linejoin="round"/>
<path d="M8.79971 4.90004C8.38871 4.48904 7.66493 4.20317 6.99971 4.18527M6.99971 4.18527C6.20825 4.16397 5.49971 4.52202 5.49971 5.50004C5.49971 7.30004 8.79971 6.40004 8.79971 8.20004C8.79971 9.22664 7.92143 9.66776 6.99971 9.63464M6.99971 4.18527V3.10004M5.19971 8.80004C5.58639 9.31562 6.30539 9.60968 6.99971 9.63464M6.99971 9.63464V10.9" stroke="#423D35" stroke-linecap="round" stroke-linejoin="round"/>
</svg>
