<svg width="14" height="8" viewBox="0 0 14 8" fill="none" xmlns="http://www.w3.org/2000/svg">
<path d="M8.2 3.99999C8.2 2.50497 6.8098 1.00143 5.11428 1.00143C4.91345 1.00143 4.25142 1.00144 4.08572 1.00144C2.38152 1.00144 1 2.34395 1 3.99999C1 5.42703 2.02584 6.62127 3.4 6.92427C3.62054 6.97293 3.85004 6.99855 4.08572 6.99855" stroke="#423D35" stroke-linecap="round" stroke-linejoin="round"/>
<path d="M5.80005 4C5.80005 5.49502 7.19025 6.99856 8.88579 6.99856C9.08661 6.99856 9.74865 6.99856 9.91431 6.99856C11.6185 6.99856 13 5.65606 13 4C13 2.57296 11.9742 1.37874 10.6 1.07574C10.3795 1.02711 10.15 1.00143 9.91431 1.00143" stroke="#423D35" stroke-linecap="round" stroke-linejoin="round"/>
</svg>
