<svg width="14" height="16" viewBox="0 0 14 16" fill="none" xmlns="http://www.w3.org/2000/svg">
<path d="M12.3825 7.98577V3.53843C12.3825 3.42523 12.3376 3.31666 12.2575 3.2366L10.0176 0.996727C9.93755 0.916672 9.82899 0.871704 9.7158 0.871704H1.42684C1.19111 0.871704 1 1.06281 1 1.29855V14.673C1 14.9088 1.19111 15.0998 1.42684 15.0998H5.97985" stroke="#423D35" stroke-linecap="round" stroke-linejoin="round"/>
<path d="M3.84619 6.563H9.53745M3.84619 3.71738H6.69182M3.84619 9.40863H5.98041" stroke="#423D35" stroke-linecap="round" stroke-linejoin="round"/>
<path d="M10.9269 11.4997L11.6383 10.7883C11.9498 10.4768 12.4549 10.4768 12.7665 10.7883C13.078 11.0999 13.078 11.605 12.7665 11.9165L12.055 12.6279M10.9269 11.4997L8.79901 13.6276C8.69237 13.7343 8.62236 13.8721 8.59917 14.021L8.42651 15.1283L9.53368 14.9557C9.68272 14.9324 9.82044 14.8624 9.92708 14.7558L12.055 12.6279M10.9269 11.4997L12.055 12.6279" stroke="#423D35" stroke-linecap="round" stroke-linejoin="round"/>
<path d="M9.53662 0.871704V3.29049C9.53662 3.52623 9.72771 3.71733 9.96347 3.71733H12.3822" stroke="#423D35" stroke-linecap="round" stroke-linejoin="round"/>
</svg>
