<svg width="14" height="14" viewBox="0 0 14 14" fill="none" xmlns="http://www.w3.org/2000/svg">
<path d="M12.9998 3.54133V12.5766C12.9998 12.8106 12.8102 13.0002 12.5763 13.0002H3.54096C3.30705 13.0002 3.11743 12.8106 3.11743 12.5766V3.54133C3.11743 3.30742 3.30705 3.1178 3.54096 3.1178H12.5763C12.8102 3.1178 12.9998 3.30742 12.9998 3.54133Z" stroke="white" stroke-linecap="round" stroke-linejoin="round"/>
<path d="M10.8824 1H1.42353C1.18962 1 1 1.18962 1 1.42353V10.8824" stroke="white" stroke-linecap="round" stroke-linejoin="round"/>
<path d="M3.11743 10.0354L6.96054 8.76477L12.9998 10.8824" stroke="white" stroke-linecap="round" stroke-linejoin="round"/>
<path d="M9.82396 7.35288C9.23921 7.35288 8.76514 6.87881 8.76514 6.29405C8.76514 5.7093 9.23921 5.23523 9.82396 5.23523C10.4087 5.23523 10.8828 5.7093 10.8828 6.29405C10.8828 6.87881 10.4087 7.35288 9.82396 7.35288Z" stroke="white" stroke-linecap="round" stroke-linejoin="round"/>
</svg>
