<svg width="14" height="12" viewBox="0 0 14 12" fill="none" xmlns="http://www.w3.org/2000/svg">
<path d="M2.58097 7.74905L3.20438 6.42725C3.28441 6.25757 3.5156 6.25757 3.59563 6.42725L4.21903 7.74905L5.61316 7.96235C5.79203 7.98971 5.8633 8.21981 5.73382 8.35187L4.72522 9.38003L4.96325 10.8326C4.99382 11.0191 4.80674 11.1613 4.64669 11.0732L3.4 10.3871L2.15331 11.0732C1.99326 11.1613 1.80618 11.0191 1.83675 10.8326L2.07478 9.38003L1.06618 8.35187C0.936682 8.21981 1.00797 7.98971 1.18685 7.96235L2.58097 7.74905Z" stroke="#423D35" stroke-linecap="round" stroke-linejoin="round"/>
<path d="M9.78088 7.74905L10.4043 6.42725C10.4843 6.25757 10.7156 6.25757 10.7955 6.42725L11.419 7.74905L12.8131 7.96235C12.992 7.98971 13.0632 8.21981 12.9338 8.35187L11.9252 9.38003L12.1632 10.8326C12.1938 11.0191 12.0067 11.1613 11.8466 11.0732L10.5999 10.3871L9.35326 11.0732C9.19318 11.1613 9.0061 11.0191 9.0367 10.8326L9.27472 9.38003L8.26612 8.35187C8.13664 8.21981 8.20792 7.98971 8.38678 7.96235L9.78088 7.74905Z" stroke="#423D35" stroke-linecap="round" stroke-linejoin="round"/>
<path d="M6.18104 2.34908L6.8045 1.02726C6.88448 0.857572 7.11572 0.857572 7.1957 1.02726L7.81916 2.34908L9.21326 2.56235C9.39212 2.58971 9.4634 2.81984 9.33392 2.95185L8.32532 3.98002L8.56334 5.43258C8.59394 5.61912 8.40686 5.76132 8.24678 5.67324L7.0001 4.98706L5.75341 5.67324C5.59336 5.76132 5.40628 5.61912 5.43685 5.43258L5.67488 3.98002L4.66628 2.95185C4.53678 2.81984 4.60807 2.58971 4.78694 2.56235L6.18104 2.34908Z" stroke="#423D35" stroke-linecap="round" stroke-linejoin="round"/>
</svg>
