<svg width="25" height="25" viewBox="0 0 25 25" fill="none" xmlns="http://www.w3.org/2000/svg">
<mask id="path-1-inside-1_208_6" fill="white">
<path d="M1.5 6.47216L12.1399 11.2011L12.8601 9.58053L2.2202 4.85168L1.5 6.47216ZM13.3867 23.3951V10.3908H11.6133V23.3951H13.3867ZM12.8601 11.2011L23.5 6.47216L22.7798 4.85168L12.1399 9.58053L12.8601 11.2011Z"/>
</mask>
<path d="M1.5 6.47216L-0.272799 5.68427L-1.06069 7.45705L0.712085 8.24496L1.5 6.47216ZM12.1399 11.2011L11.352 12.9738L13.1248 13.7618L13.9127 11.9889L12.1399 11.2011ZM12.8601 9.58053L14.6329 10.3684L15.4208 8.59563L13.648 7.80773L12.8601 9.58053ZM2.2202 4.85168L3.00811 3.07889L1.23531 2.29098L0.447404 4.06379L2.2202 4.85168ZM13.3867 23.3951V25.3351H15.3267V23.3951H13.3867ZM13.3867 10.3908H15.3267V8.45077H13.3867V10.3908ZM11.6133 10.3908V8.45077H9.67334V10.3908H11.6133ZM11.6133 23.3951H9.67334V25.3351H11.6133V23.3951ZM12.8601 11.2011L11.0873 11.9889L11.8752 13.7618L13.648 12.9738L12.8601 11.2011ZM23.5 6.47216L24.2879 8.24496L26.0607 7.45705L25.2728 5.68427L23.5 6.47216ZM22.7798 4.85168L24.5526 4.06379L23.7647 2.29098L21.9919 3.07889L22.7798 4.85168ZM12.1399 9.58053L11.352 7.80773L9.57922 8.59563L10.3671 10.3684L12.1399 9.58053ZM0.712085 8.24496L11.352 12.9738L12.9278 9.42826L2.28792 4.69937L0.712085 8.24496ZM13.9127 11.9889L14.6329 10.3684L11.0873 8.79265L10.3671 10.4132L13.9127 11.9889ZM13.648 7.80773L3.00811 3.07889L1.43229 6.62448L12.0722 11.3533L13.648 7.80773ZM0.447404 4.06379L-0.272799 5.68427L3.2728 7.26006L3.993 5.63958L0.447404 4.06379ZM15.3267 23.3951V10.3908H11.4467V23.3951H15.3267ZM13.3867 8.45077H11.6133V12.3308H13.3867V8.45077ZM9.67334 10.3908V23.3951H13.5533V10.3908H9.67334ZM11.6133 25.3351H13.3867V21.4551H11.6133V25.3351ZM13.648 12.9738L24.2879 8.24496L22.7121 4.69937L12.0722 9.42826L13.648 12.9738ZM25.2728 5.68427L24.5526 4.06379L21.007 5.63958L21.7272 7.26006L25.2728 5.68427ZM21.9919 3.07889L11.352 7.80773L12.9278 11.3533L23.5677 6.62448L21.9919 3.07889ZM10.3671 10.3684L11.0873 11.9889L14.6329 10.4132L13.9127 8.79265L10.3671 10.3684Z" fill="white" mask="url(#path-1-inside-1_208_6)"/>
<path d="M1.86011 18.2053V6.12291C1.86011 5.8426 2.02519 5.58858 2.28135 5.47473L12.2119 1.06114C12.3954 0.979622 12.6046 0.979622 12.7881 1.06114L22.7187 5.47473C22.9749 5.58858 23.1399 5.8426 23.1399 6.12291V18.2053C23.1399 18.4856 22.9749 18.7397 22.7187 18.8535L12.7881 23.2671C12.6046 23.3485 12.3954 23.3485 12.2119 23.2671L2.28135 18.8535C2.02519 18.7397 1.86011 18.4856 1.86011 18.2053Z" stroke="white" stroke-width="1.91" stroke-linecap="round" stroke-linejoin="round"/>
<path d="M7.18005 3.29755L17.3987 7.83918C17.6549 7.95302 17.82 8.20704 17.82 8.48736V12.7552" stroke="white" stroke-width="1.91" stroke-linecap="round" stroke-linejoin="round"/>
</svg>
