<svg width="109" height="19" viewBox="0 0 109 19" fill="none" xmlns="http://www.w3.org/2000/svg">
<path d="M0.94 18V6H2.62V7.656C3.052 7.048 3.604 6.564 4.276 6.204C4.948 5.844 5.684 5.664 6.484 5.664C7.388 5.664 8.216 5.888 8.968 6.336C9.72 6.776 10.308 7.364 10.732 8.1C11.156 7.364 11.74 6.776 12.484 6.336C13.228 5.888 14.052 5.664 14.956 5.664C15.86 5.664 16.684 5.884 17.428 6.324C18.172 6.764 18.764 7.356 19.204 8.1C19.644 8.844 19.864 9.668 19.864 10.572V18H18.184V10.944C18.184 10.304 18.028 9.712 17.716 9.168C17.404 8.624 16.984 8.188 16.456 7.86C15.936 7.524 15.356 7.356 14.716 7.356C14.076 7.356 13.492 7.512 12.964 7.824C12.444 8.128 12.028 8.552 11.716 9.096C11.404 9.632 11.248 10.248 11.248 10.944V18H9.568V10.944C9.568 10.248 9.412 9.632 9.1 9.096C8.788 8.552 8.368 8.128 7.84 7.824C7.312 7.512 6.728 7.356 6.088 7.356C5.456 7.356 4.876 7.524 4.348 7.86C3.82 8.188 3.4 8.624 3.088 9.168C2.776 9.712 2.62 10.304 2.62 10.944V18H0.94ZM27.3138 18.312C26.2098 18.312 25.2018 18.028 24.2898 17.46C23.3858 16.892 22.6618 16.132 22.1178 15.18C21.5818 14.22 21.3138 13.16 21.3138 12C21.3138 11.12 21.4698 10.3 21.7818 9.54C22.0938 8.772 22.5218 8.1 23.0658 7.524C23.6178 6.94 24.2578 6.484 24.9858 6.156C25.7138 5.828 26.4898 5.664 27.3138 5.664C28.4178 5.664 29.4218 5.948 30.3258 6.516C31.2378 7.084 31.9618 7.848 32.4978 8.808C33.0418 9.768 33.3138 10.832 33.3138 12C33.3138 12.872 33.1578 13.688 32.8458 14.448C32.5338 15.208 32.1018 15.88 31.5498 16.464C31.0058 17.04 30.3698 17.492 29.6418 17.82C28.9218 18.148 28.1458 18.312 27.3138 18.312ZM27.3138 16.632C28.1298 16.632 28.8618 16.42 29.5098 15.996C30.1658 15.564 30.6818 14.996 31.0578 14.292C31.4418 13.588 31.6338 12.824 31.6338 12C31.6338 11.16 31.4418 10.388 31.0578 9.684C30.6738 8.972 30.1538 8.404 29.4978 7.98C28.8498 7.556 28.1218 7.344 27.3138 7.344C26.4978 7.344 25.7618 7.56 25.1058 7.992C24.4578 8.416 23.9418 8.98 23.5578 9.684C23.1818 10.388 22.9938 11.16 22.9938 12C22.9938 12.864 23.1898 13.648 23.5818 14.352C23.9738 15.048 24.4978 15.604 25.1538 16.02C25.8098 16.428 26.5298 16.632 27.3138 16.632ZM45.8103 10.572V18H44.1303V10.908C44.1303 10.252 43.9703 9.656 43.6503 9.12C43.3303 8.584 42.9023 8.156 42.3663 7.836C41.8303 7.516 41.2343 7.356 40.5783 7.356C39.9303 7.356 39.3343 7.516 38.7903 7.836C38.2543 8.156 37.8263 8.584 37.5063 9.12C37.1863 9.656 37.0263 10.252 37.0263 10.908V18H35.3463V6H37.0263V7.656C37.4503 7.048 38.0023 6.564 38.6823 6.204C39.3623 5.844 40.1023 5.664 40.9023 5.664C41.8063 5.664 42.6303 5.884 43.3743 6.324C44.1183 6.764 44.7103 7.356 45.1503 8.1C45.5903 8.844 45.8103 9.668 45.8103 10.572ZM53.2591 18.312C52.1551 18.312 51.1471 18.028 50.2351 17.46C49.3311 16.892 48.6071 16.132 48.0631 15.18C47.5271 14.22 47.2591 13.16 47.2591 12C47.2591 11.12 47.4151 10.3 47.7271 9.54C48.0391 8.772 48.4671 8.1 49.0111 7.524C49.5631 6.94 50.2031 6.484 50.9311 6.156C51.6591 5.828 52.4351 5.664 53.2591 5.664C54.3631 5.664 55.3671 5.948 56.2711 6.516C57.1831 7.084 57.9071 7.848 58.4431 8.808C58.9871 9.768 59.2591 10.832 59.2591 12C59.2591 12.872 59.1031 13.688 58.7911 14.448C58.4791 15.208 58.0471 15.88 57.4951 16.464C56.9511 17.04 56.3151 17.492 55.5871 17.82C54.8671 18.148 54.0911 18.312 53.2591 18.312ZM53.2591 16.632C54.0751 16.632 54.8071 16.42 55.4551 15.996C56.1111 15.564 56.6271 14.996 57.0031 14.292C57.3871 13.588 57.5791 12.824 57.5791 12C57.5791 11.16 57.3871 10.388 57.0031 9.684C56.6191 8.972 56.0991 8.404 55.4431 7.98C54.7951 7.556 54.0671 7.344 53.2591 7.344C52.4431 7.344 51.7071 7.56 51.0511 7.992C50.4031 8.416 49.8871 8.98 49.5031 9.684C49.1271 10.388 48.9391 11.16 48.9391 12C48.9391 12.864 49.1351 13.648 49.5271 14.352C49.9191 15.048 50.4431 15.604 51.0991 16.02C51.7551 16.428 52.4751 16.632 53.2591 16.632ZM71.7556 10.572V18H70.0756V10.908C70.0756 10.252 69.9156 9.656 69.5956 9.12C69.2756 8.584 68.8476 8.156 68.3116 7.836C67.7756 7.516 67.1796 7.356 66.5236 7.356C65.8756 7.356 65.2796 7.516 64.7356 7.836C64.1996 8.156 63.7716 8.584 63.4516 9.12C63.1316 9.656 62.9716 10.252 62.9716 10.908V18H61.2916V6H62.9716V7.656C63.3956 7.048 63.9476 6.564 64.6276 6.204C65.3076 5.844 66.0476 5.664 66.8476 5.664C67.7516 5.664 68.5756 5.884 69.3196 6.324C70.0636 6.764 70.6556 7.356 71.0956 8.1C71.5356 8.844 71.7556 9.668 71.7556 10.572ZM82.4924 14.988L83.9924 15.804C83.4484 16.564 82.7564 17.172 81.9164 17.628C81.0844 18.084 80.1804 18.312 79.2044 18.312C78.1004 18.312 77.0924 18.028 76.1804 17.46C75.2764 16.892 74.5524 16.132 74.0084 15.18C73.4724 14.22 73.2044 13.16 73.2044 12C73.2044 11.12 73.3604 10.3 73.6724 9.54C73.9844 8.772 74.4124 8.1 74.9564 7.524C75.5084 6.94 76.1484 6.484 76.8764 6.156C77.6044 5.828 78.3804 5.664 79.2044 5.664C80.1804 5.664 81.0844 5.892 81.9164 6.348C82.7564 6.804 83.4484 7.416 83.9924 8.184L82.4924 8.988C82.0764 8.46 81.5764 8.056 80.9924 7.776C80.4084 7.488 79.8124 7.344 79.2044 7.344C78.3964 7.344 77.6644 7.56 77.0084 7.992C76.3524 8.416 75.8324 8.98 75.4484 9.684C75.0724 10.388 74.8844 11.16 74.8844 12C74.8844 12.84 75.0764 13.612 75.4604 14.316C75.8524 15.02 76.3764 15.584 77.0324 16.008C77.6884 16.424 78.4124 16.632 79.2044 16.632C79.8604 16.632 80.4764 16.48 81.0524 16.176C81.6284 15.872 82.1084 15.476 82.4924 14.988ZM96.4587 10.572V18H94.7787V10.908C94.7787 10.252 94.6187 9.656 94.2987 9.12C93.9787 8.584 93.5507 8.156 93.0147 7.836C92.4787 7.516 91.8827 7.356 91.2267 7.356C90.5787 7.356 89.9827 7.516 89.4387 7.836C88.9027 8.156 88.4747 8.584 88.1547 9.12C87.8347 9.656 87.6747 10.252 87.6747 10.908V18H85.9947V-1.43051e-06H87.6747V7.656C88.0987 7.048 88.6507 6.564 89.3307 6.204C90.0107 5.844 90.7507 5.664 91.5507 5.664C92.4547 5.664 93.2787 5.884 94.0227 6.324C94.7667 6.764 95.3587 7.356 95.7987 8.1C96.2387 8.844 96.4587 9.668 96.4587 10.572ZM98.3819 13.404V6H100.062V13.068C100.062 13.724 100.222 14.32 100.542 14.856C100.862 15.392 101.29 15.82 101.826 16.14C102.37 16.46 102.966 16.62 103.614 16.62C104.27 16.62 104.862 16.46 105.39 16.14C105.926 15.82 106.354 15.392 106.674 14.856C106.994 14.32 107.154 13.724 107.154 13.068V6H108.834L108.846 18H107.166L107.154 16.32C106.73 16.928 106.178 17.412 105.498 17.772C104.826 18.132 104.09 18.312 103.29 18.312C102.386 18.312 101.562 18.092 100.818 17.652C100.074 17.212 99.4819 16.62 99.0419 15.876C98.6019 15.132 98.3819 14.308 98.3819 13.404Z" fill="#423D35"/>
</svg>
