<svg width="25" height="25" viewBox="0 0 25 25" fill="none" xmlns="http://www.w3.org/2000/svg">
<path d="M12.5 23.1976C18.5751 23.1976 23.5 18.2727 23.5 12.1976C23.5 6.12244 18.5751 1.19757 12.5 1.19757C6.42487 1.19757 1.5 6.12244 1.5 12.1976C1.5 18.2727 6.42487 23.1976 12.5 23.1976Z" stroke="white" stroke-width="2" stroke-linecap="round" stroke-linejoin="round"/>
<path d="M15.8 8.34755C15.0465 7.59406 13.7195 7.06995 12.5 7.03714M12.5 7.03714C11.0489 6.99809 9.74995 7.65452 9.74995 9.44756C9.74995 12.7475 15.8 11.0975 15.8 14.3975C15.8 16.2796 14.1898 17.0884 12.5 17.0276M12.5 7.03714V5.04755M9.19995 15.4975C9.90888 16.4428 11.227 16.9819 12.5 17.0276M12.5 17.0276V19.3475" stroke="white" stroke-width="2" stroke-linecap="round" stroke-linejoin="round"/>
</svg>
